<?xml version="1.0" encoding="UTF-8"?>
<svg width="16px" height="16px" viewBox="0 0 16 16" version="1.1" xmlns="http://www.w3.org/2000/svg" xmlns:xlink="http://www.w3.org/1999/xlink">
    <!-- Generator: Sketch 58 (84663) - https://sketch.com -->
    <title>application</title>
    <desc>Created with Sketch.</desc>
    <g id="深色" stroke="none" stroke-width="1" fill="none" fill-rule="evenodd">
        <g id="系统日志" transform="translate(-527.000000, -444.000000)" stroke="#C5CFE0">
            <g id="侧边栏-" transform="translate(509.000000, 222.000000)">
                <g id="应用-2" transform="translate(18.000000, 222.000000)">
                    <g id="应用">
                        <g id="操作日志" transform="translate(1.500000, 1.500000)" stroke-linecap="round">
                            <path d="M2,3 L7,3" id="直线" stroke-linejoin="round"></path>
                            <polyline id="路径-2" stroke-linejoin="round" points="11 4.04988526 11 0 0 0 0 13 5.5 13"></polyline>
                            <path d="M2,5 L4,5" id="直线-4"></path>
                            <path d="M2,7 L3,7" id="直线-4备份"></path>
                        </g>
                        <g id="编组-4" transform="translate(7.000000, 6.000000)">
                            <polygon id="多边形" stroke-linejoin="round" points="4.5 0.5 7.96410162 2.5 7.96410162 6.5 4.5 8.5 1.03589838 6.5 1.03589838 2.5"></polygon>
                            <polyline id="路径-7" stroke-linecap="round" points="2.5 3.5 4.5 4.5 6.5 3.5"></polyline>
                            <path d="M4.5,4.5 C4.5,5.83333333 4.5,6.66666667 4.5,7" id="路径-8" stroke-linecap="round"></path>
                        </g>
                    </g>
                </g>
            </g>
        </g>
    </g>
</svg>