<?xml version="1.0" encoding="UTF-8"?>
<svg width="16px" height="16px" viewBox="0 0 16 16" version="1.1" xmlns="http://www.w3.org/2000/svg" xmlns:xlink="http://www.w3.org/1999/xlink">
    <!-- Generator: Sketch 58 (84663) - https://sketch.com -->
    <title>application -checked</title>
    <desc>Created with Sketch.</desc>
    <g id="浅色切图标注" stroke="none" stroke-width="1" fill="none" fill-rule="evenodd">
        <g id="应用日志" transform="translate(-527.000000, -444.000000)" fill="#FFFFFF">
            <g id="操作日志" transform="translate(509.000000, 172.000000)">
                <g id="Group-6" transform="translate(10.000000, 262.000000)">
                    <g id="应用备份-2" transform="translate(8.000000, 10.000000)">
                        <g id="应用备份">
                            <path d="M2,1 L12,1 C12.5128358,1 12.9355072,1.38604019 12.9932723,1.88337887 L13,2 L13,6.788 L11.75,6.0669873 C11.6210829,5.99255697 11.4672363,5.98015191 11.3300094,6.02977213 L11.25,6.0669873 L7.78589838,8.0669873 C7.63119785,8.1563037 7.53589838,8.32136721 7.53589838,8.5 L7.53589838,8.5 L7.53589838,12.5 C7.53589838,12.6786328 7.63119785,12.8436963 7.78589838,12.9330127 L7.78589838,12.9330127 L11.25,14.9330127 C11.3273503,14.9776709 11.4136751,15 11.5,15 L2,15 C1.48716416,15 1.06449284,14.6139598 1.00672773,14.1166211 L1,14 L1,2 C1,1.48716416 1.38604019,1.06449284 1.88337887,1.00672773 L2,1 L12,1 Z M12.1166211,14.9932723 L12,15 L11.5,15 C11.5863249,15 11.6726497,14.9776709 11.75,14.9330127 L11.75,14.9330127 L12.9742729,14.226357 C12.8802303,14.6327531 12.5384618,14.9442761 12.1166211,14.9932723 Z M4.5,8 L3.5,8 L3.41012437,8.00805567 C3.17687516,8.05039163 3,8.25454011 3,8.5 C3,8.74545989 3.17687516,8.94960837 3.41012437,8.99194433 L3.5,9 L4.5,9 L4.58987563,8.99194433 C4.82312484,8.94960837 5,8.74545989 5,8.5 C5,8.22385763 4.77614237,8 4.5,8 Z M5.5,6 L3.5,6 L3.41012437,6.00805567 C3.17687516,6.05039163 3,6.25454011 3,6.5 C3,6.74545989 3.17687516,6.94960837 3.41012437,6.99194433 L3.5,7 L5.5,7 L5.58987563,6.99194433 C5.82312484,6.94960837 6,6.74545989 6,6.5 C6,6.22385763 5.77614237,6 5.5,6 Z M8.5,4 L3.5,4 L3.41012437,4.00805567 C3.17687516,4.05039163 3,4.25454011 3,4.5 C3,4.74545989 3.17687516,4.94960837 3.41012437,4.99194433 L3.5,5 L8.5,5 L8.58987563,4.99194433 C8.82312484,4.94960837 9,4.74545989 9,4.5 C9,4.22385763 8.77614237,4 8.5,4 Z" id="形状结合"></path>
                            <g id="编组-4" stroke-width="1" transform="translate(8.000000, 7.000000)">
                                <path d="M3.5,0.0773502692 L6.46410162,1.78867513 L6.46410162,5.21132487 L3.5,6.92264973 L0.535898385,5.21132487 L0.535898385,1.78867513 L3.5,0.0773502692 Z M5.2763932,2.0527864 L3.5,2.94098301 L1.7236068,2.0527864 C1.47661755,1.92929178 1.17628103,2.02940395 1.0527864,2.2763932 C0.92929178,2.52338245 1.02940395,2.82371897 1.2763932,2.9472136 L2.99989838,3.80835027 L3,6 C3,6.27614237 3.22385763,6.5 3.5,6.5 C3.77614237,6.5 4,6.27614237 4,6 L3.99989838,3.80835027 L5.7236068,2.9472136 C5.97059605,2.82371897 6.07070822,2.52338245 5.9472136,2.2763932 C5.82371897,2.02940395 5.52338245,1.92929178 5.2763932,2.0527864 Z" id="形状结合" fill-rule="nonzero"></path>
                            </g>
                        </g>
                    </g>
                </g>
            </g>
        </g>
    </g>
</svg>