<?xml version="1.0" encoding="UTF-8"?>
<svg width="16px" height="16px" viewBox="0 0 16 16" version="1.1" xmlns="http://www.w3.org/2000/svg" xmlns:xlink="http://www.w3.org/1999/xlink">
    <!-- Generator: Sketch 58 (84663) - https://sketch.com -->
    <title>core-checked</title>
    <desc>Created with Sketch.</desc>
    <g id="浅色切图标注" stroke="none" stroke-width="1" fill="none" fill-rule="evenodd">
        <g id="内核日志" transform="translate(-527.000000, -284.000000)" fill="#FFFFFF">
            <g id="core-checked" transform="translate(527.000000, 284.000000)">
                <g id="内核备份">
                    <path d="M12,1 C12.5128358,1 12.9355072,1.38604019 12.9932723,1.88337887 L13,2 L13,7.2 C13,6.92385763 12.7761424,6.7 12.5,6.7 C12.2238576,6.7 12,6.92385763 12,7.2 L12,8 L10.5,8 L10.5,7.2 C10.5,6.92385763 10.2761424,6.7 10,6.7 C9.72385763,6.7 9.5,6.92385763 9.5,7.2 L9.5,8 L8.57142857,8 C8.28739641,8 8.051765,8.2072282 8.00747904,8.47873989 L8,8.57142857 L8,9.5 L8,9.5 L7.2,9.5 C6.92385763,9.5 6.7,9.72385763 6.7,10 C6.7,10.2761424 6.92385763,10.5 7.2,10.5 L8,10.5 L8,12 L7.2,12 C6.92385763,12 6.7,12.2238576 6.7,12.5 C6.7,12.7761424 6.92385763,13 7.2,13 L8,13 L8,15 L2,15 C1.48716416,15 1.06449284,14.6139598 1.00672773,14.1166211 L1,14 L1,2 C1,1.48716416 1.38604019,1.06449284 1.88337887,1.00672773 L2,1 L12,1 Z M4.5,8 L3.5,8 L3.41012437,8.00805567 C3.17687516,8.05039163 3,8.25454011 3,8.5 C3,8.74545989 3.17687516,8.94960837 3.41012437,8.99194433 L3.5,9 L4.5,9 L4.58987563,8.99194433 C4.82312484,8.94960837 5,8.74545989 5,8.5 C5,8.22385763 4.77614237,8 4.5,8 Z M5.5,6 L3.5,6 L3.41012437,6.00805567 C3.17687516,6.05039163 3,6.25454011 3,6.5 C3,6.74545989 3.17687516,6.94960837 3.41012437,6.99194433 L3.5,7 L5.5,7 L5.58987563,6.99194433 C5.82312484,6.94960837 6,6.74545989 6,6.5 C6,6.22385763 5.77614237,6 5.5,6 Z M8.5,4 L3.5,4 L3.41012437,4.00805567 C3.17687516,4.05039163 3,4.25454011 3,4.5 C3,4.74545989 3.17687516,4.94960837 3.41012437,4.99194433 L3.5,5 L8.5,5 L8.58987563,4.99194433 C8.82312484,4.94960837 9,4.74545989 9,4.5 C9,4.22385763 8.77614237,4 8.5,4 Z" id="形状结合"></path>
                    <g id="编组-3" stroke-width="1" transform="translate(9.000000, 9.000000)">
                        <path d="M4.4,0 C4.73137085,5.01504649e-17 5,0.26862915 5,0.6 L5,0.6 L5,4.4 C5,4.73137085 4.73137085,5 4.4,5 L4.4,5 L0.6,5 C0.26862915,5 4.05812251e-17,4.73137085 0,4.4 L0,4.4 L0,0.6 C7.04410774e-17,0.26862915 0.26862915,6.08718376e-17 0.6,0 L0.6,0 Z M3.5,1 L1.5,1 C1.22385763,1 1,1.22385763 1,1.5 L1,1.5 L1,3.5 C1,3.77614237 1.22385763,4 1.5,4 L1.5,4 L3.5,4 C3.77614237,4 4,3.77614237 4,3.5 L4,3.5 L4,1.5 C4,1.22385763 3.77614237,1 3.5,1 L3.5,1 Z" id="形状结合" fill-rule="nonzero"></path>
                    </g>
                </g>
            </g>
        </g>
    </g>
</svg>