<?xml version="1.0" encoding="UTF-8"?>
<svg width="16px" height="16px" viewBox="0 0 16 16" version="1.1" xmlns="http://www.w3.org/2000/svg" xmlns:xlink="http://www.w3.org/1999/xlink">
    <!-- Generator: Sketch 58 (84663) - https://sketch.com -->
    <title>core</title>
    <desc>Created with Sketch.</desc>
    <g id="深色" stroke="none" stroke-width="1" fill="none" fill-rule="evenodd">
        <g id="系统日志" transform="translate(-527.000000, -284.000000)" stroke="#C5CFE0">
            <g id="侧边栏-" transform="translate(509.000000, 222.000000)">
                <g id="内核-2" transform="translate(18.000000, 62.000000)">
                    <g id="内核">
                        <g id="操作日志" transform="translate(1.500000, 1.500000)" stroke-linecap="round">
                            <path d="M2,3 L7,3" id="直线" stroke-linejoin="round"></path>
                            <polyline id="路径-2" stroke-linejoin="round" points="11 4.04988526 11 0 0 0 0 13 5.5 13"></polyline>
                            <path d="M2,5 L4,5" id="直线-4"></path>
                            <path d="M2,7 L3,7" id="直线-4备份"></path>
                        </g>
                        <g id="编组-3" transform="translate(7.000000, 7.000000)">
                            <rect id="矩形" stroke-linejoin="round" x="1.5" y="1.5" width="6" height="6"></rect>
                            <rect id="矩形备份" fill="#C5CFE0" stroke-linejoin="round" x="3.5" y="3.5" width="2" height="2"></rect>
                            <path d="M3,0.2 L3,1" id="直线-2" stroke-linecap="round"></path>
                            <path d="M5.5,0.2 L5.5,1" id="直线-2备份" stroke-linecap="round"></path>
                            <path d="M0.6,2.6 L0.6,3.4" id="直线-2备份" stroke-linecap="round" transform="translate(0.600000, 3.000000) rotate(-90.000000) translate(-0.600000, -3.000000) "></path>
                            <path d="M0.6,5.1 L0.6,5.9" id="直线-2备份-2" stroke-linecap="round" transform="translate(0.600000, 5.500000) rotate(-90.000000) translate(-0.600000, -5.500000) "></path>
                        </g>
                    </g>
                </g>
            </g>
        </g>
    </g>
</svg>