<?xml version="1.0" encoding="UTF-8"?>
<svg width="16px" height="16px" viewBox="0 0 16 16" version="1.1" xmlns="http://www.w3.org/2000/svg" xmlns:xlink="http://www.w3.org/1999/xlink">
    <!-- Generator: Sketch 58 (84663) - https://sketch.com -->
    <title>start</title>
    <desc>Created with Sketch.</desc>
    <g id="深色" stroke="none" stroke-width="1" fill="none" fill-rule="evenodd">
        <g id="系统日志" transform="translate(-527.000000, -324.000000)" stroke="#C5CFE0">
            <g id="侧边栏-" transform="translate(509.000000, 222.000000)">
                <g id="侧边栏">
                    <g id="Group-6" transform="translate(12.000000, 50.000000)">
                        <g id="操作日志备份-2" transform="translate(6.000000, 52.000000)">
                            <g id="操作日志">
                                <g transform="translate(1.500000, 1.500000)">
                                    <circle id="椭圆形" cx="9" cy="9" r="1"></circle>
                                    <path d="M9.8404151,5 C9.9734869,5.61388902 10.2607942,6.02570412 10.7023371,6.23544532 C11.1438799,6.44518652 11.6374364,6.44518652 12.1830065,6.23544532 L13,7.69667543 C12.55095,8.06458725 12.3264249,8.50960324 12.3264249,9.03172338 C12.3264249,9.55384353 12.55095,9.95862109 13,10.2460561 L12.1830065,11.7931263 C11.5891774,11.5740485 11.0956209,11.5740485 10.7023371,11.7931263 C10.3090532,12.0122041 10.0217459,12.4144954 9.8404151,13 L8.2190274,13 C8.11200021,12.4480141 7.8424497,12.0457228 7.41037585,11.7931263 C6.97830201,11.5405298 6.44711493,11.5405298 5.81681461,11.7931263 L4.97693797,10.2460561 C5.46300568,9.9982201 5.70603953,9.59344253 5.70603953,9.03172338 C5.70603953,8.47000423 5.49028066,8.02498824 5.05876293,7.69667543 L5.81681461,6.23544532 C6.50087217,6.49348437 7.03205925,6.49348437 7.41037585,6.23544532 C7.78869245,5.97740627 8.02975539,5.56559117 8.13356465,5 L9.8404151,5 Z" id="路径-3备份" stroke-linejoin="round"></path>
                                    <path d="M2,3 L7,3" id="直线" stroke-linecap="round" stroke-linejoin="round"></path>
                                    <polyline id="路径-2" stroke-linecap="round" stroke-linejoin="round" points="11 4.04988526 11 0 0 0 0 13 5.5 13"></polyline>
                                    <path d="M2,5 L4,5" id="直线-4" stroke-linecap="round"></path>
                                    <path d="M2,7 L3,7" id="直线-4备份" stroke-linecap="round"></path>
                                </g>
                            </g>
                        </g>
                    </g>
                </g>
            </g>
        </g>
    </g>
</svg>