<?xml version="1.0" encoding="UTF-8"?>
<svg width="16px" height="16px" viewBox="0 0 16 16" version="1.1" xmlns="http://www.w3.org/2000/svg" xmlns:xlink="http://www.w3.org/1999/xlink">
    <!-- Generator: Sketch 58 (84663) - https://sketch.com -->
    <title>system</title>
    <desc>Created with Sketch.</desc>
    <g id="浅色切图标注" stroke="none" stroke-width="1" fill="none" fill-rule="evenodd">
        <g id="系统日志" transform="translate(-527.000000, -243.000000)" fill="#FFFFFF">
            <g id="system" transform="translate(527.000000, 243.000000)">
                <g id="日志-选中">
                    <g id="日志备份" transform="translate(2.000000, 1.000000)">
                        <rect id="矩形" x="3" y="0" width="6" height="2" rx="1"></rect>
                        <path d="M2,1 L2,2.8 C2,2.91045695 2.08954305,3 2.2,3 L2.2,3 L9.8,3 C9.91045695,3 10,2.91045695 10,2.8 L10,2.8 L10,1 L11,1 C11.5522847,1 12,1.44771525 12,2 L12,2 L12,13 C12,13.5522847 11.5522847,14 11,14 L11,14 L1,14 C0.44771525,14 6.76353751e-17,13.5522847 0,13 L0,13 L0,2 C-6.76353751e-17,1.44771525 0.44771525,1 1,1 L1,1 L2,1 Z M2.5,9 L2.5,9 L2.41012437,9.00805567 C2.17687516,9.05039163 2,9.25454011 2,9.5 C2,9.77614237 2.22385763,10 2.5,10 L2.5,10 L6.5,10 L6.58987563,9.99194433 C6.82312484,9.94960837 7,9.74545989 7,9.5 C7,9.22385763 6.77614237,9 6.5,9 L6.5,9 Z M9.5,7 L2.5,7 L2.41012437,7.00805567 C2.17687516,7.05039163 2,7.25454011 2,7.5 C2,7.77614237 2.22385763,8 2.5,8 L2.5,8 L9.5,8 L9.58987563,7.99194433 C9.82312484,7.94960837 10,7.74545989 10,7.5 C10,7.22385763 9.77614237,7 9.5,7 L9.5,7 Z M9.5,5 L2.5,5 L2.41012437,5.00805567 C2.17687516,5.05039163 2,5.25454011 2,5.5 C2,5.77614237 2.22385763,6 2.5,6 L2.5,6 L9.5,6 L9.58987563,5.99194433 C9.82312484,5.94960837 10,5.74545989 10,5.5 C10,5.22385763 9.77614237,5 9.5,5 L9.5,5 Z" id="形状结合"></path>
                    </g>
                </g>
            </g>
        </g>
    </g>
</svg>