<?xml version="1.0" encoding="UTF-8"?>
<svg width="16px" height="16px" viewBox="0 0 16 16" version="1.1" xmlns="http://www.w3.org/2000/svg" xmlns:xlink="http://www.w3.org/1999/xlink">
    <!-- Generator: Sketch 58 (84663) - https://sketch.com -->
    <title>d -checked</title>
    <desc>Created with Sketch.</desc>
    <g id="浅色切图标注" stroke="none" stroke-width="1" fill="none" fill-rule="evenodd">
        <g id="dpkg日志" transform="translate(-527.000000, -364.000000)" fill="#FFFFFF">
            <g id="操作日志" transform="translate(509.000000, 172.000000)">
                <g id="日志列表" transform="translate(18.000000, 6.000000)">
                    <g id="d--checked" transform="translate(0.000000, 186.000000)">
                        <g id="d备份">
                            <g id="日志" transform="translate(2.000000, 0.000000)">
                                <path d="M7.5025072,0.998928772 C7.50085158,1.01773469 7.5,1.0369385 7.5,1.05651623 L7.5,4.94456453 C7.5,5.25132307 7.72385763,5.5 8,5.5 L12,5.5 L12,14 C12,14.5128358 11.6139598,14.9355072 11.1166211,14.9932723 L11,15 L1,15 C0.487164161,15 0.0644928393,14.6139598 0.00672773133,14.1166211 L0,14 L0,2 C0,1.48716416 0.38604019,1.06449284 0.883378875,1.00672773 L1,1 L7.5025072,0.998928772 Z M3.8,6 L3.8,6 L3.6996497,6.00623314 C3.30518815,6.05559842 3,6.39215895 3,6.8 L3,6.8 L3,11.2 L3.00623314,11.3003503 C3.05559842,11.6948119 3.39215895,12 3.8,12 L3.8,12 L4.8040293,12 L5.00945466,11.9961698 C6.89874691,11.9247499 8,10.8567279 8,8.97554348 C8,7.01902174 6.81868132,6 4.74908425,6 L4.74908425,6 Z M4.6483871,7 C6.17741935,7 7,7.63619744 7,8.98171846 C7,10.3199269 6.17741935,11 4.6483871,11 L4.6483871,11 L4,11 L4,7 Z" id="形状结合" fill-rule="nonzero"></path>
                                <path d="M9.35355339,1.35355339 L11.6464466,3.64644661 C11.8417088,3.84170876 11.8417088,4.15829124 11.6464466,4.35355339 C11.5526784,4.44732158 11.4255015,4.5 11.2928932,4.5 L9,4.5 C8.72385763,4.5 8.5,4.27614237 8.5,4 L8.5,1.70710678 C8.5,1.43096441 8.72385763,1.20710678 9,1.20710678 C9.13260824,1.20710678 9.2597852,1.2597852 9.35355339,1.35355339 Z" id="路径" fill-rule="nonzero"></path>
                            </g>
                        </g>
                    </g>
                </g>
            </g>
        </g>
    </g>
</svg>