<?xml version="1.0" encoding="UTF-8"?>
<svg width="16px" height="16px" viewBox="0 0 16 16" version="1.1" xmlns="http://www.w3.org/2000/svg" xmlns:xlink="http://www.w3.org/1999/xlink">
    <!-- Generator: Sketch 58 (84663) - https://sketch.com -->
    <title>start</title>
    <desc>Created with Sketch.</desc>
    <g id="浅色切图标注" stroke="none" stroke-width="1" fill="none" fill-rule="evenodd">
        <g id="启动日志" transform="translate(-527.000000, -324.000000)" fill="#FFFFFF">
            <g id="start" transform="translate(527.000000, 324.000000)">
                <g id="操作日志-选中">
                    <g id="操作日志" transform="translate(0.500000, 0.500000)">
                        <path d="M1.5,0.5 L11.5,0.5 C12.0128358,0.5 12.4355072,0.88604019 12.4932723,1.38337887 L12.5,1.5 L12.4997835,6.29706502 C12.4111849,6.27984945 12.3266066,6.25160247 12.2451187,6.21278259 C11.9768124,6.08496461 11.7920273,5.81933731 11.6887557,5.34154999 C11.6141461,4.99636771 11.3088379,4.75 10.9556844,4.75 L10.9556844,4.75 L9.04099719,4.75 C8.67885978,4.75 8.36844374,5.0087614 8.30325047,5.36498232 C8.22080286,5.81548227 8.05384735,6.10151962 7.80630826,6.27084576 C7.61712364,6.40025521 7.26754502,6.40025521 6.70751975,6.18839443 C6.35143489,6.05368548 5.95091422,6.20713518 5.77599392,6.54528577 L5.77599392,6.54528577 L4.92563714,8.18916964 C4.75839317,8.5124806 4.84744757,8.90920246 5.13683317,9.13001121 C5.43289377,9.35591316 5.5678815,9.63513629 5.5678815,10.0356888 C5.5678815,10.38872 5.45052281,10.5847466 5.15854056,10.7340516 C4.78361062,10.9257717 4.63996951,11.388522 4.84043572,11.7588494 L4.84043572,11.7588494 L5.78258096,13.4993034 C5.96405235,13.8345411 6.3681293,13.9803231 6.72183438,13.8381651 C7.22912304,13.6342801 7.58607099,13.6342801 7.85041418,13.7892644 C8.14241958,13.960467 8.32007574,14.2263747 8.40050256,14.6423667 L8.367,14.5 L1.5,14.5 C0.987164161,14.5 0.564492839,14.1139598 0.506727731,13.6166211 L0.5,13.5 L0.5,1.5 C0.5,0.987164161 0.88604019,0.564492839 1.38337887,0.506727731 L1.5,0.5 L11.5,0.5 Z M4,7.5 L3,7.5 L2.91012437,7.50805567 C2.67687516,7.55039163 2.5,7.75454011 2.5,8 C2.5,8.24545989 2.67687516,8.44960837 2.91012437,8.49194433 L3,8.5 L4,8.5 L4.08987563,8.49194433 C4.32312484,8.44960837 4.5,8.24545989 4.5,8 C4.5,7.72385763 4.27614237,7.5 4,7.5 Z M5,5.5 L3,5.5 L2.91012437,5.50805567 C2.67687516,5.55039163 2.5,5.75454011 2.5,6 C2.5,6.24545989 2.67687516,6.44960837 2.91012437,6.49194433 L3,6.5 L5,6.5 L5.08987563,6.49194433 C5.32312484,6.44960837 5.5,6.24545989 5.5,6 C5.5,5.72385763 5.27614237,5.5 5,5.5 Z M8,3.5 L3,3.5 L2.91012437,3.50805567 C2.67687516,3.55039163 2.5,3.75454011 2.5,4 C2.5,4.24545989 2.67687516,4.44960837 2.91012437,4.49194433 L3,4.5 L8,4.5 L8.08987563,4.49194433 C8.32312484,4.44960837 8.5,4.24545989 8.5,4 C8.5,3.72385763 8.27614237,3.5 8,3.5 Z" id="形状结合"></path>
                        <path d="M10.5756348,5.5 C10.7894522,5.49997944 10.9796085,5.63593452 11.0487728,5.83825649 C11.2217406,6.34422821 11.5130028,6.69476805 11.9225593,6.88987599 C12.3198429,7.0791372 12.7546644,7.1165931 13.2270238,7.00224368 C13.445295,6.9494246 13.672012,7.04859648 13.7813656,7.24474426 L14.3110167,8.19478015 C14.4159234,8.38297543 14.388484,8.61721098 14.2429139,8.77605746 C13.9105754,9.13870589 13.7444062,9.558583 13.7444062,10.0356888 C13.7444062,10.4970755 13.8998063,10.877012 14.2106066,11.1754982 C14.3712536,11.3298753 14.4104289,11.5719151 14.306621,11.7690538 L13.7766246,12.7755555 C13.6697244,12.9786806 13.4382389,13.0828885 13.2152874,13.0282988 C12.7106485,12.904738 12.2797391,12.9427274 11.9225593,13.1422671 C11.5543603,13.3479628 11.2689669,13.6972266 11.0663793,14.1900587 C10.9893367,14.3775865 10.8066639,14.5 10.603927,14.5 L9.52097724,14.5 C9.30707077,14.500034 9.11685461,14.363971 9.04775325,14.1615334 C8.89421588,13.7117342 8.6215476,13.3719788 8.22974842,13.1422671 C7.83227553,12.9092289 7.36003247,12.8672967 6.81301923,13.0164705 C6.58895933,13.0775631 6.35232613,12.9763415 6.2417689,12.7721057 L5.71617408,11.8011581 C5.60394545,11.5938018 5.65181461,11.3362183 5.83105736,11.1830388 C6.15560679,10.9056815 6.3178815,10.5232315 6.3178815,10.0356888 C6.3178815,9.52610284 6.16049683,9.10189107 5.8457275,8.76305347 C5.70222206,8.60845031 5.67110893,8.38041995 5.76802636,8.19306212 L6.24728104,7.26658154 C6.35532671,7.05770351 6.59432959,6.95235232 6.82140664,7.01350715 C7.40861811,7.17165092 7.87806538,7.13044054 8.22974842,6.88987599 C8.57151102,6.6560974 8.81342091,6.31012348 8.95547808,5.85195421 C9.02034251,5.64265904 9.21393337,5.5 9.43304947,5.5 L10.5756348,5.5 Z M10,8.5 C9.17157288,8.5 8.5,9.17157288 8.5,10 C8.5,10.8284271 9.17157288,11.5 10,11.5 C10.8284271,11.5 11.5,10.8284271 11.5,10 C11.5,9.17157288 10.8284271,8.5 10,8.5 Z" id="形状结合备份"></path>
                    </g>
                </g>
            </g>
        </g>
    </g>
</svg>