<?xml version="1.0" encoding="UTF-8"?>
<svg width="25px" height="25px" viewBox="0 0 25 25" version="1.1" xmlns="http://www.w3.org/2000/svg" xmlns:xlink="http://www.w3.org/1999/xlink">
    <title>apps/128/deepin-log-viewer</title>
    <defs>
        <filter x="-9.5%" y="-5.1%" width="120.6%" height="123.0%" filterUnits="objectBoundingBox" id="filter-1">
            <feOffset dx="0" dy="1" in="SourceAlpha" result="shadowOffsetOuter1"></feOffset>
            <feGaussianBlur stdDeviation="0.5" in="shadowOffsetOuter1" result="shadowBlurOuter1"></feGaussianBlur>
            <feColorMatrix values="0 0 0 0 0   0 0 0 0 0   0 0 0 0 0  0 0 0 0.20036604 0" type="matrix" in="shadowBlurOuter1" result="shadowMatrixOuter1"></feColorMatrix>
            <feMerge>
                <feMergeNode in="shadowMatrixOuter1"></feMergeNode>
                <feMergeNode in="SourceGraphic"></feMergeNode>
            </feMerge>
        </filter>
        <linearGradient x1="39.598747%" y1="11.71875%" x2="75.3018846%" y2="88.28125%" id="linearGradient-2">
            <stop stop-color="#3C3C3C" offset="0%"></stop>
            <stop stop-color="#2E2E2E" offset="100%"></stop>
        </linearGradient>
        <path d="M2.56468643,-4.4408921e-16 L18.4353136,0 C19.3271109,0 19.6504982,0.0928546198 19.976526,0.267216185 C20.3025537,0.44157775 20.5584223,0.697446259 20.7327838,1.02347404 C20.9071454,1.34950182 21,1.67288909 21,2.56468643 L21,15.8103136 C21,16.7021109 20.9071454,17.0254982 20.7327838,17.351526 C20.5584223,17.6775537 20.3025537,17.9334223 19.976526,18.1077838 C19.6504982,18.2821454 19.3271109,18.375 18.4353136,18.375 L2.56468643,18.375 C1.67288909,18.375 1.34950182,18.2821454 1.02347404,18.1077838 C0.697446259,17.9334223 0.44157775,17.6775537 0.267216185,17.351526 C0.0928546198,17.0254982 1.01990261e-15,16.7021109 6.61469885e-16,15.8103136 L0,2.56468643 C0,1.67288909 0.0928546198,1.34950182 0.267216185,1.02347404 C0.44157775,0.697446259 0.697446259,0.44157775 1.02347404,0.267216185 C1.34950182,0.0928546198 1.67288909,-4.4408921e-16 2.56468643,-4.4408921e-16 Z" id="path-3"></path>
        <filter x="-2.4%" y="-2.7%" width="104.8%" height="105.4%" filterUnits="objectBoundingBox" id="filter-4">
            <feOffset dx="0" dy="-1" in="SourceAlpha" result="shadowOffsetInner1"></feOffset>
            <feComposite in="shadowOffsetInner1" in2="SourceAlpha" operator="arithmetic" k2="-1" k3="1" result="shadowInnerInner1"></feComposite>
            <feColorMatrix values="0 0 0 0 0   0 0 0 0 0   0 0 0 0 0  0 0 0 0.12 0" type="matrix" in="shadowInnerInner1"></feColorMatrix>
        </filter>
        <linearGradient x1="50%" y1="0%" x2="50%" y2="99.1887019%" id="linearGradient-5">
            <stop stop-color="#FFFFFF" stop-opacity="0.2" offset="0%"></stop>
            <stop stop-color="#FFFFFF" stop-opacity="0.2" offset="0%"></stop>
            <stop stop-color="#000000" stop-opacity="0.4" offset="100%"></stop>
        </linearGradient>
        <linearGradient x1="9.85732714%" y1="12.3353507%" x2="93.1443371%" y2="87.6646493%" id="linearGradient-6">
            <stop stop-color="#A655DF" offset="0%"></stop>
            <stop stop-color="#2F63AE" offset="100%"></stop>
        </linearGradient>
        <path d="M1.92351471,-6.66133815e-16 L17.9514853,1.13354267e-16 C18.6203333,-6.58620937e-17 18.8628737,0.0696409607 19.1073945,0.200412127 C19.3519153,0.331183292 19.5438167,0.523084663 19.6745879,0.767605484 C19.805359,1.0121263 19.875,1.25466674 19.875,1.92351471 L19.875,15.3264853 C19.875,15.9953333 19.805359,16.2378737 19.6745879,16.4823945 C19.5438167,16.7269153 19.3519153,16.9188167 19.1073945,17.0495879 C18.8628737,17.180359 18.6203333,17.25 17.9514853,17.25 L1.92351471,17.25 C1.25466674,17.25 1.0121263,17.180359 0.767605484,17.0495879 C0.523084663,16.9188167 0.331183292,16.7269153 0.200412127,16.4823945 C0.0696409607,16.2378737 0,15.9953333 0,15.3264853 L0,1.92351471 C0,1.25466674 0.0696409607,1.0121263 0.200412127,0.767605484 C0.331183292,0.523084663 0.523084663,0.331183292 0.767605484,0.200412127 C1.0121263,0.0696409607 1.25466674,-6.66133815e-16 1.92351471,-6.66133815e-16 Z" id="path-7"></path>
        <linearGradient x1="0%" y1="50%" x2="100%" y2="50%" id="linearGradient-9">
            <stop stop-color="#A09AD3" offset="0%"></stop>
            <stop stop-color="#988DD9" offset="49.6179452%"></stop>
            <stop stop-color="#1654D2" offset="100%"></stop>
        </linearGradient>
        <rect id="path-10" x="0.0201397369" y="0.0271688368" width="8.0625" height="2.4375" rx="0.0468896441"></rect>
        <path d="M0,0 L9.75,0 L9.75,9.09301758 C9.75,10.3878395 8.70033947,11.4375 7.40551758,11.4375 L0,11.4375 L0,11.4375 L0,0 Z" id="path-12"></path>
        <linearGradient x1="50%" y1="15.2465325%" x2="62.3082175%" y2="66.8516562%" id="linearGradient-14">
            <stop stop-color="#F7FEFF" stop-opacity="0.839324738" offset="0%"></stop>
            <stop stop-color="#FFFFFF" stop-opacity="0" offset="100%"></stop>
        </linearGradient>
        <linearGradient x1="50%" y1="-17.3926397%" x2="56.8331665%" y2="82.6781089%" id="linearGradient-15">
            <stop stop-color="#F7FEFF" stop-opacity="0.469815341" offset="0%"></stop>
            <stop stop-color="#FFFFFF" stop-opacity="0.05" offset="100%"></stop>
        </linearGradient>
        <linearGradient x1="50%" y1="0%" x2="50%" y2="97.7300044%" id="linearGradient-16">
            <stop stop-color="#A3C8FF" offset="0%"></stop>
            <stop stop-color="#1D7EF3" offset="100%"></stop>
        </linearGradient>
        <path d="M2.52101262,2.71605128 L3.88924205,2.71605128 C4.0880979,2.71605128 4.24930242,2.8772558 4.24930242,3.07611165 C4.24930242,3.27496751 4.0880979,3.43617203 3.88924205,3.43617203 L2.52101262,3.43617203 L2.52101262,3.43617203 L2.52101262,2.71605128 Z" id="path-17"></path>
        <filter x="0.0%" y="-0.0%" width="100.0%" height="100.0%" filterUnits="objectBoundingBox" id="filter-18">
            <feOffset dx="-0" dy="-0" in="SourceAlpha" result="shadowOffsetOuter1"></feOffset>
            <feColorMatrix values="0 0 0 0 0   0 0 0 0 0   0 0 0 0 0  0 0 0 0.0957987325 0" type="matrix" in="shadowOffsetOuter1"></feColorMatrix>
        </filter>
        <path d="M3.44794778,3.65625 L5.60419778,3.65625 C5.75952786,3.65625 5.88544778,3.78216991 5.88544778,3.9375 C5.88544778,4.09283009 5.75952786,4.21875 5.60419778,4.21875 L3.55974955,4.21875 L3.55974955,4.21875 L3.44794778,3.65625 Z" id="path-19"></path>
        <filter x="0.0%" y="0.0%" width="100.0%" height="100.0%" filterUnits="objectBoundingBox" id="filter-20">
            <feOffset dx="-0" dy="0" in="SourceAlpha" result="shadowOffsetOuter1"></feOffset>
            <feColorMatrix values="0 0 0 0 0   0 0 0 0 0   0 0 0 0 0  0 0 0 0.08 0" type="matrix" in="shadowOffsetOuter1"></feColorMatrix>
        </filter>
    </defs>
    <g id="apps/128/deepin-log-viewer" stroke="none" fill="none" transform="translate(0.5, 0)">
        <g id="编组-3" filter="url(#filter-1)" stroke-width="1" fill-rule="evenodd" transform="translate(1.5, 2.4375)">
            <g id="矩形">
                <g id="蒙版">
                    <use fill="url(#linearGradient-2)" fill-rule="evenodd" xlink:href="#path-3"></use>
                    <use fill="black" fill-opacity="1" filter="url(#filter-4)" xlink:href="#path-3"></use>
                </g>
                <path d="M18.4353136,0 C19.3271109,0 19.6504982,0.0928546198 19.976526,0.267216185 C20.3025537,0.44157775 20.5584223,0.697446259 20.7327838,1.02347404 C20.9071454,1.34950182 21,1.67288909 21,2.56468643 L21,15.8103136 C21,16.7021109 20.9071454,17.0254982 20.7327838,17.351526 C20.5584223,17.6775537 20.3025537,17.9334223 19.976526,18.1077838 C19.6504982,18.2821454 19.3271109,18.375 18.4353136,18.375 L2.56468643,18.375 C1.67288909,18.375 1.34950182,18.2821454 1.02347404,18.1077838 C0.697446259,17.9334223 0.44157775,17.6775537 0.267216185,17.351526 C0.0928546198,17.0254982 0,16.7021109 0,15.8103136 L0,2.56468643 C0,1.67288909 0.0928546198,1.34950182 0.267216185,1.02347404 C0.44157775,0.697446259 0.697446259,0.44157775 1.02347404,0.267216185 C1.34950182,0.0928546198 1.67288909,0 2.56468643,0 L18.4353136,0 Z M18.4353136,0.1875 L2.56468643,0.1875 C1.77992168,0.1875 1.45154188,0.250913063 1.11189883,0.432556159 C0.818546384,0.589442762 0.589442762,0.818546384 0.432556159,1.11189883 C0.250913063,1.45154188 0.1875,1.77992168 0.1875,2.56468643 L0.1875,15.8103136 C0.1875,16.5950783 0.250913063,16.9234581 0.432556159,17.2631012 C0.589442762,17.5564536 0.818546384,17.7855572 1.11189883,17.9424438 C1.45154188,18.1240869 1.77992168,18.1875 2.56468643,18.1875 L18.4353136,18.1875 C19.2200783,18.1875 19.5484581,18.1240869 19.8881012,17.9424438 C20.1814536,17.7855572 20.4105572,17.5564536 20.5674438,17.2631012 C20.7490869,16.9234581 20.8125,16.5950783 20.8125,15.8103136 L20.8125,2.56468643 C20.8125,1.77992168 20.7490869,1.45154188 20.5674438,1.11189883 C20.4105572,0.818546384 20.1814536,0.589442762 19.8881012,0.432556159 C19.5484581,0.250913063 19.2200783,0.1875 18.4353136,0.1875 Z" id="蒙版" fill="url(#linearGradient-5)" fill-rule="nonzero"></path>
                <g id="kevin-lanceplaine-243768-unsplash" transform="translate(0.5625, 0.5625)">
                    <mask id="mask-8" fill="white">
                        <use xlink:href="#path-7"></use>
                    </mask>
                    <use id="蒙版" fill="url(#linearGradient-6)" xlink:href="#path-7"></use>
                    <g id="编组-2" transform="translate(4.125, 12.1875)">
                        <path d="M0.60109839,2.25 L11.0239016,2.25 C11.2329166,2.25 11.3087105,2.2717628 11.3851233,2.31262879 C11.461536,2.35349479 11.5215052,2.41346397 11.5623712,2.48987673 C11.6032372,2.56628949 11.625,2.64208338 11.625,2.85109839 L11.625,3.71140161 C11.625,3.92041662 11.6032372,3.99621051 11.5623712,4.07262327 C11.5215052,4.14903603 11.461536,4.20900521 11.3851233,4.24987121 C11.3087105,4.2907372 11.2329166,4.3125 11.0239016,4.3125 L0.60109839,4.3125 C0.392083384,4.3125 0.316289493,4.2907372 0.239876731,4.24987121 C0.163463969,4.20900521 0.103494786,4.14903603 0.062628794,4.07262327 C0.0217628018,3.99621051 1.11022302e-16,3.92041662 1.11022302e-16,3.71140161 L5.66771337e-17,2.85109839 C-3.29310469e-17,2.64208338 0.0217628018,2.56628949 0.062628794,2.48987673 C0.103494786,2.41346397 0.163463969,2.35349479 0.239876731,2.31262879 C0.316289493,2.2717628 0.392083384,2.25 0.60109839,2.25 Z" id="bg" fill="url(#linearGradient-9)"></path>
                        <rect id="矩形" fill="#000000" opacity="0.100000001" x="0.5625" y="2.8125" width="1.875" height="1" rx="0.234448254"></rect>
                        <rect id="矩形备份-2" fill="#75FFAC" x="3.375" y="2.8125" width="1" height="1" rx="0.234448254"></rect>
                        <rect id="矩形备份-3" fill="#FFB656" x="4.875" y="2.8125" width="1" height="1" rx="0.234448254"></rect>
                        <rect id="矩形备份-7" fill="#FF796E" x="7.6875" y="2.8125" width="1" height="1" rx="0.234448254"></rect>
                        <rect id="矩形备份-5" fill-opacity="0.3" fill="#000000" x="12.9375" y="0" width="1" height="1" rx="0.234448254"></rect>
                        <circle id="椭圆形备份" fill="#482AC5" cx="6.65625" cy="3.28125" r="1"></circle>
                    </g>
                </g>
                <g id="编组-2备份" opacity="0.3" transform="translate(9.5424, 15.1603)">
                    <mask id="mask-11" fill="white">
                        <use xlink:href="#path-10"></use>
                    </mask>
                    <g id="蒙版"></g>
                </g>
            </g>
            <g id="编组" transform="translate(9.5625, 0.9375)">
                <mask id="mask-13" fill="white">
                    <use xlink:href="#path-12"></use>
                </mask>
                <g id="蒙版"></g>
                <g opacity="0.560081845" mask="url(#mask-13)" fill="url(#linearGradient-14)" id="形状结合">
                    <g transform="translate(-4.8001, 0.713)">
                        <path d="M0.468896484,0 L0.553073123,0 C0.8120375,-5.55111512e-17 1.02196961,0.209932107 1.02196961,0.468896484 L1.02196961,2.24154465 C1.02196961,2.50050902 0.8120375,2.71044113 0.553073123,2.71044113 L0.468896484,2.71044113 C0.209932107,2.71044113 0,2.50050902 0,2.24154465 L0,0.468896484 C-5.55111512e-17,0.209932107 0.209932107,1.11022302e-16 0.468896484,5.55111512e-17 Z M0.468896484,3.51024343 L0.553073123,3.51024343 C0.8120375,3.51024343 1.02196961,3.72017554 1.02196961,3.97913992 L1.02196961,5.75178808 C1.02196961,6.01075246 0.8120375,6.22068456 0.553073123,6.22068456 L0.468896484,6.22068456 C0.209932107,6.22068456 0,6.01075246 0,5.75178808 L0,3.97913992 C-5.55111512e-17,3.72017554 0.209932107,3.51024343 0.468896484,3.51024343 Z M2.37953531,3.51024343 L2.46371195,3.51024343 C2.72267633,3.51024343 2.93260844,3.72017554 2.93260844,3.97913992 L2.93260844,5.75178808 C2.93260844,6.01075246 2.72267633,6.22068456 2.46371195,6.22068456 L2.37953531,6.22068456 C2.12057094,6.22068456 1.91063883,6.01075246 1.91063883,5.75178808 L1.91063883,3.97913992 C1.91063883,3.72017554 2.12057094,3.51024343 2.37953531,3.51024343 Z M5.26881566,0.03697146 C5.52769913,0.03697146 5.73756566,0.246837984 5.73756566,0.50572146 L5.73756566,2.19322146 C5.73756566,2.45210494 5.52769913,2.66197146 5.26881566,2.66197146 C5.00993218,2.66197146 4.80006566,2.45210494 4.80006566,2.19322146 L4.80006566,0.50572146 C4.80006566,0.246837984 5.00993218,0.03697146 5.26881566,0.03697146 Z M10.1438157,0.03697146 C10.4026991,0.03697146 10.6125657,0.246837984 10.6125657,0.50572146 L10.6125657,2.19322146 C10.6125657,2.45210494 10.4026991,2.66197146 10.1438157,2.66197146 C9.88493218,2.66197146 9.67506566,2.45210494 9.67506566,2.19322146 L9.67506566,0.50572146 C9.67506566,0.246837984 9.88493218,0.03697146 10.1438157,0.03697146 Z M7.14381566,3.59947146 C7.40269913,3.59947146 7.61256566,3.80933798 7.61256566,4.06822146 L7.61256566,5.75572146 C7.61256566,6.01460494 7.40269913,6.22447146 7.14381566,6.22447146 C6.88493218,6.22447146 6.67506566,6.01460494 6.67506566,5.75572146 L6.67506566,4.06822146 C6.67506566,3.80933798 6.88493218,3.59947146 7.14381566,3.59947146 Z M3.40150492,6.93161994 L3.48568156,6.93161994 C3.74464594,6.93161994 3.95457804,7.14155205 3.95457804,7.40051643 L3.95457804,9.17316459 C3.95457804,9.43212897 3.74464594,9.64206107 3.48568156,9.64206107 L3.40150492,9.64206107 C3.14254054,9.64206107 2.93260844,9.43212897 2.93260844,9.17316459 L2.93260844,7.40051643 C2.93260844,7.14155205 3.14254054,6.93161994 3.40150492,6.93161994 Z M11.0884937,6.93161994 L11.1726703,6.93161994 C11.4316347,6.93161994 11.6415668,7.14155205 11.6415668,7.40051643 L11.6415668,9.17316459 C11.6415668,9.43212897 11.4316347,9.64206107 11.1726703,9.64206107 L11.0884937,9.64206107 C10.8295293,9.64206107 10.6195972,9.43212897 10.6195972,9.17316459 L10.6195972,7.40051643 C10.6195972,7.14155205 10.8295293,6.93161994 11.0884937,6.93161994 Z M12.9991325,6.93161994 L13.0833092,6.93161994 C13.3422736,6.93161994 13.5522057,7.14155205 13.5522057,7.40051643 L13.5522057,9.17316459 C13.5522057,9.43212897 13.3422736,9.64206107 13.0833092,9.64206107 L12.9991325,9.64206107 C12.7401682,9.64206107 12.5302361,9.43212897 12.5302361,9.17316459 L12.5302361,7.40051643 C12.5302361,7.14155205 12.7401682,6.93161994 12.9991325,6.93161994 Z M2.88817498,6.39488462e-13 C3.45259321,6.39488462e-13 3.91014458,0.457551378 3.91014458,1.02196961 L3.91014458,1.68847152 C3.91014458,2.25288975 3.45259321,2.71044113 2.88817498,2.71044113 C2.32375675,2.71044113 1.86620537,2.25288975 1.86620537,1.68847152 L1.86620537,1.02196961 C1.86620537,0.457551378 2.32375675,6.39488462e-13 2.88817498,6.39488462e-13 Z M2.90610427,0.927256177 C2.72786693,0.927256177 2.58337702,1.07174609 2.58337702,1.24998342 L2.58337702,1.46045771 C2.58337702,1.63869505 2.72786693,1.78318496 2.90610427,1.78318496 C3.0843416,1.78318496 3.22883151,1.63869505 3.22883151,1.46045771 L3.22883151,1.24998342 C3.22883151,1.07174609 3.0843416,0.927256177 2.90610427,0.927256177 Z M7.70631566,0.03697146 C8.2758593,0.03697146 8.73756566,0.498677812 8.73756566,1.06822146 L8.73756566,1.63072146 C8.73756566,2.20026511 8.2758593,2.66197146 7.70631566,2.66197146 C7.13677201,2.66197146 6.67506566,2.20026511 6.67506566,1.63072146 L6.67506566,1.06822146 C6.67506566,0.498677812 7.13677201,0.03697146 7.70631566,0.03697146 Z M7.70631566,0.78697146 C7.55098557,0.78697146 7.42506566,0.912891374 7.42506566,1.06822146 L7.42506566,1.44322146 C7.42506566,1.59855155 7.55098557,1.72447146 7.70631566,1.72447146 C7.86164574,1.72447146 7.98756566,1.59855155 7.98756566,1.44322146 L7.98756566,1.06822146 C7.98756566,0.912891374 7.86164574,0.78697146 7.70631566,0.78697146 Z M12.5813157,0.03697146 C13.1508593,0.03697146 13.6125657,0.498677812 13.6125657,1.06822146 L13.6125657,1.63072146 C13.6125657,2.20026511 13.1508593,2.66197146 12.5813157,2.66197146 C12.011772,2.66197146 11.5500657,2.20026511 11.5500657,1.63072146 L11.5500657,1.06822146 C11.5500657,0.498677812 12.011772,0.03697146 12.5813157,0.03697146 Z M12.5813157,0.78697146 C12.4259856,0.78697146 12.3000657,0.912891374 12.3000657,1.06822146 L12.3000657,1.44322146 C12.3000657,1.59855155 12.4259856,1.72447146 12.5813157,1.72447146 C12.7366457,1.72447146 12.8625657,1.59855155 12.8625657,1.44322146 L12.8625657,1.06822146 C12.8625657,0.912891374 12.7366457,0.78697146 12.5813157,0.78697146 Z M12.5813157,3.59947146 C13.1508593,3.59947146 13.6125657,4.06117781 13.6125657,4.63072146 L13.6125657,5.19322146 C13.6125657,5.76276511 13.1508593,6.22447146 12.5813157,6.22447146 C12.011772,6.22447146 11.5500657,5.76276511 11.5500657,5.19322146 L11.5500657,4.63072146 C11.5500657,4.06117781 12.011772,3.59947146 12.5813157,3.59947146 Z M12.5813157,4.34947146 C12.4259856,4.34947146 12.3000657,4.47539137 12.3000657,4.63072146 L12.3000657,5.00572146 C12.3000657,5.16105155 12.4259856,5.28697146 12.5813157,5.28697146 C12.7366457,5.28697146 12.8625657,5.16105155 12.8625657,5.00572146 L12.8625657,4.63072146 C12.8625657,4.47539137 12.7366457,4.34947146 12.5813157,4.34947146 Z M9.58131566,3.59947146 C10.1508593,3.59947146 10.6125657,4.06117781 10.6125657,4.63072146 L10.6125657,5.19322146 C10.6125657,5.76276511 10.1508593,6.22447146 9.58131566,6.22447146 C9.01177201,6.22447146 8.55006566,5.76276511 8.55006566,5.19322146 L8.55006566,4.63072146 C8.55006566,4.06117781 9.01177201,3.59947146 9.58131566,3.59947146 Z M9.58131566,4.34947146 C9.42598557,4.34947146 9.30006566,4.47539137 9.30006566,4.63072146 L9.30006566,5.00572146 C9.30006566,5.16105155 9.42598557,5.28697146 9.58131566,5.28697146 C9.73664574,5.28697146 9.86256566,5.16105155 9.86256566,5.00572146 L9.86256566,4.63072146 C9.86256566,4.47539137 9.73664574,4.34947146 9.58131566,4.34947146 Z M5.83131566,6.97447146 C6.4008593,6.97447146 6.86256566,7.43617781 6.86256566,8.00572146 L6.86256566,8.56822146 C6.86256566,9.13776511 6.4008593,9.59947146 5.83131566,9.59947146 C5.26177201,9.59947146 4.80006566,9.13776511 4.80006566,8.56822146 L4.80006566,8.00572146 C4.80006566,7.43617781 5.26177201,6.97447146 5.83131566,6.97447146 Z M5.83131566,7.72447146 C5.67598557,7.72447146 5.55006566,7.85039137 5.55006566,8.00572146 L5.55006566,8.38072146 C5.55006566,8.53605155 5.67598557,8.66197146 5.83131566,8.66197146 C5.98664574,8.66197146 6.11256566,8.53605155 6.11256566,8.38072146 L6.11256566,8.00572146 C6.11256566,7.85039137 5.98664574,7.72447146 5.83131566,7.72447146 Z M1.02196961,7.06492033 C1.58638784,7.06492033 2.04393921,7.52247171 2.04393921,8.08688993 L2.04393921,8.75339185 C2.04393921,9.31781008 1.58638784,9.77536146 1.02196961,9.77536146 C0.457551378,9.77536146 1.36424205e-12,9.31781008 1.36424205e-12,8.75339185 L1.36424205e-12,8.08688993 C1.36424205e-12,7.52247171 0.457551378,7.06492033 1.02196961,7.06492033 Z M1.0398989,7.9921765 C0.861661563,7.9921765 0.717171654,8.13666641 0.717171654,8.31490375 L0.717171654,8.52537804 C0.717171654,8.70361537 0.861661563,8.84810528 1.0398989,8.84810528 C1.21813623,8.84810528 1.36262614,8.70361537 1.36262614,8.52537804 L1.36262614,8.31490375 C1.36262614,8.13666641 1.21813623,7.9921765 1.0398989,7.9921765 Z M8.75339185,7.06492033 C9.31781008,7.06492033 9.77536146,7.52247171 9.77536146,8.08688993 L9.77536146,8.75339185 C9.77536146,9.31781008 9.31781008,9.77536146 8.75339185,9.77536146 C8.18897362,9.77536146 7.73142224,9.31781008 7.73142224,8.75339185 L7.73142224,8.08688993 C7.73142224,7.52247171 8.18897362,7.06492033 8.75339185,7.06492033 Z M8.77132114,7.9921765 C8.59308381,7.9921765 8.4485939,8.13666641 8.4485939,8.31490375 L8.4485939,8.52537804 C8.4485939,8.70361537 8.59308381,8.84810528 8.77132114,8.84810528 C8.94955848,8.84810528 9.09404839,8.70361537 9.09404839,8.52537804 L9.09404839,8.31490375 C9.09404839,8.13666641 8.94955848,7.9921765 8.77132114,7.9921765 Z M4.89381566,3.59947146 C5.4633593,3.59947146 5.92506566,4.06117781 5.92506566,4.63072146 L5.92506566,5.19322146 C5.92506566,5.76276511 5.4633593,6.22447146 4.89381566,6.22447146 C4.32427201,6.22447146 3.86256566,5.76276511 3.86256566,5.19322146 L3.86256566,4.63072146 C3.86256566,4.06117781 4.32427201,3.59947146 4.89381566,3.59947146 Z M4.89381566,4.53697146 C4.73848557,4.53697146 4.61256566,4.66289137 4.61256566,4.81822146 L4.61256566,5.19322146 C4.61256566,5.34855155 4.73848557,5.47447146 4.89381566,5.47447146 C5.04914574,5.47447146 5.17506566,5.34855155 5.17506566,5.19322146 L5.17506566,4.81822146 C5.17506566,4.66289137 5.04914574,4.53697146 4.89381566,4.53697146 Z"></path>
                    </g>
                </g>
            </g>
            <path d="M2.76584472,1.875 L5.71872071,1.875 C5.77051358,1.875 5.8125,1.91698642 5.8125,1.96877929 L5.8125,11.3437207 C5.8125,11.3955136 5.77051358,11.4375 5.71872071,11.4375 L2.90651366,11.4375 C2.44037779,11.4375 2.0625,11.0596222 2.0625,10.5934863 L2.0625,2.57834472 C2.0625,2.18989816 2.37739816,1.875 2.76584472,1.875 Z M6.46877929,1.875 L9.09372071,1.875 C9.14551358,1.875 9.1875,1.91698642 9.1875,1.96877929 L9.1875,2.71872071 C9.1875,2.77051358 9.14551358,2.8125 9.09372071,2.8125 L6.46877929,2.8125 C6.41698642,2.8125 6.375,2.77051358 6.375,2.71872071 L6.375,1.96877929 C6.375,1.91698642 6.41698642,1.875 6.46877929,1.875 Z M6.46877929,3.75 L9.09372071,3.75 C9.14551358,3.75 9.1875,3.79198642 9.1875,3.84377929 L9.1875,11.1562207 C9.1875,11.2080136 9.14551358,11.25 9.09372071,11.25 L6.46877929,11.25 C6.41698642,11.25 6.375,11.2080136 6.375,11.1562207 L6.375,3.84377929 C6.375,3.79198642 6.41698642,3.75 6.46877929,3.75 Z" id="形状结合" fill="url(#linearGradient-15)" opacity="0.422758557"></path>
            <g id="Group-5备份-2" transform="translate(13.0521, 11.7188)">
                <path d="M3.890625,1.12976295e-12 C3.3536351,1.12976295e-12 2.84831489,0.101317711 2.3746488,0.303955078 C1.90098369,0.506592445 1.48811543,0.783949266 1.13603235,1.13603235 C0.783949071,1.48811543 0.506592834,1.90098369 0.303955078,2.3746488 C0.101317322,2.84831489 0,3.3536351 0,3.890625 C0,4.4276149 0.101317322,4.93293511 0.303955078,5.4066012 C0.506592834,5.88026631 0.783949071,6.29313457 1.13603235,6.64521765 C1.48811543,6.99730093 1.90098369,7.27465717 2.3746488,7.47729492 C2.84831489,7.67993268 3.3536351,7.78125 3.890625,7.78125 C4.4276149,7.78125 4.93293511,7.67993268 5.4066012,7.47729492 C5.88026631,7.27465717 6.29313457,6.99730093 6.64521765,6.64521765 C6.99730073,6.29313457 7.27465755,5.88026631 7.47729492,5.4066012 C7.67993229,4.93293511 7.78125,4.4276149 7.78125,3.890625 C7.78125,3.3536351 7.67993229,2.84831489 7.47729492,2.3746488 C7.27465755,1.90098369 6.99730073,1.48811543 6.64521765,1.13603235 C6.29313457,0.783949266 5.88026631,0.506592445 5.4066012,0.303955078 C4.93293511,0.101317711 4.4276149,1.12976295e-12 3.890625,1.12976295e-12 L3.890625,1.12976295e-12 Z" id="Path备份" fill="#FFFFFF"></path>
                <path d="M3.890625,-0.4875 C4.49283947,-0.4875 5.06341831,-0.373098137 5.59834745,-0.144252044 C6.12863852,0.0826103181 6.59352831,0.394913892 6.98993221,0.791317792 C7.38633611,1.18772169 7.69863968,1.65261148 7.92550219,2.18290288 C8.15434814,2.71783169 8.26875,3.28841053 8.26875,3.890625 C8.26875,4.49283947 8.15434814,5.06341831 7.92550204,5.59834745 C7.69863968,6.12863852 7.38633611,6.59352831 6.9899323,6.98993211 C6.59352904,7.38633559 6.12863954,7.69863881 5.59834743,7.92550205 C5.06341909,8.15434824 4.49284023,8.26875 3.890625,8.26875 C3.28840977,8.26875 2.71783091,8.15434824 2.18290224,7.92550191 C1.65261046,7.69863881 1.18772096,7.38633559 0.791317887,6.9899323 C0.394914407,6.59352904 0.0826111906,6.12863954 -0.144252053,5.59834743 C-0.373098242,5.06341909 -0.4875,4.49284023 -0.4875,3.890625 C-0.4875,3.28840977 -0.373098242,2.71783091 -0.144251911,2.18290224 C0.0826111906,1.65261046 0.394914407,1.18772096 0.791317792,0.791317792 C1.18772169,0.394913892 1.65261148,0.0826103181 2.18290288,-0.144252186 C2.71783169,-0.373098137 3.28841053,-0.4875 3.890625,-0.4875 Z M3.890625,1.1285417e-12 C3.3536351,1.1285417e-12 2.84831489,0.101317711 2.3746488,0.303955078 C1.90098369,0.506592445 1.48811543,0.783949266 1.13603235,1.13603235 C0.783949071,1.48811543 0.506592834,1.90098369 0.303955078,2.3746488 C0.101317322,2.84831489 -2.22044605e-16,3.3536351 -2.22044605e-16,3.890625 C-2.22044605e-16,4.4276149 0.101317322,4.93293511 0.303955078,5.4066012 C0.506592834,5.88026631 0.783949071,6.29313457 1.13603235,6.64521765 C1.48811543,6.99730093 1.90098369,7.27465717 2.3746488,7.47729492 C2.84831489,7.67993268 3.3536351,7.78125 3.890625,7.78125 C4.4276149,7.78125 4.93293511,7.67993268 5.4066012,7.47729492 C5.88026631,7.27465717 6.29313457,6.99730093 6.64521765,6.64521765 C6.99730073,6.29313457 7.27465755,5.88026631 7.47729492,5.4066012 C7.67993229,4.93293511 7.78125,4.4276149 7.78125,3.890625 C7.78125,3.3536351 7.67993229,2.84831489 7.47729492,2.3746488 C7.27465755,1.90098369 6.99730073,1.48811543 6.64521765,1.13603235 C6.29313457,0.783949266 5.88026631,0.506592445 5.4066012,0.303955078 C4.93293511,0.101317711 4.4276149,1.1285417e-12 3.890625,1.1285417e-12 Z" id="Path备份" fill="url(#linearGradient-16)" fill-rule="nonzero"></path>
                <path d="M3.72225333,0 L4.01044778,0 L4.01044778,0.778125 L3.72225333,0.778125 L3.72225333,0 Z M5.7011623,0.443432413 L5.9707127,0.599057413 L5.5816502,1.27293343 L5.3120998,1.11730843 L5.7011623,0.443432413 Z M7.18219259,1.8105373 L7.33781759,2.0800877 L6.66394157,2.4691502 L6.50831657,2.1995998 L7.18219259,1.8105373 Z M7.78125,3.735 L7.78125,4.04625 L7.01044778,4.04625 L7.01044778,3.735 L7.78125,3.735 Z M7.33781759,5.7011623 L7.18219259,5.9707127 L6.50831657,5.5816502 L6.66394157,5.3120998 L7.33781759,5.7011623 Z M5.9707127,7.18219259 L5.7011623,7.33781759 L5.3120998,6.66394157 L5.5816502,6.50831657 L5.9707127,7.18219259 Z M4.01044778,7.78125 L3.72225333,7.78125 L3.72225333,7.03125 L4.01044778,7.03125 L4.01044778,7.78125 Z M2.0800877,7.33781759 L1.8105373,7.18219259 L2.1995998,6.50831657 L2.4691502,6.66394157 L2.0800877,7.33781759 Z M0.599057413,5.9707127 L0.443432413,5.7011623 L1.11730843,5.3120998 L1.27293343,5.5816502 L0.599057413,5.9707127 Z M9.30805433e-12,4.04625 L9.30799715e-12,3.735 L0.822947778,3.735 L0.822947778,4.04625 L9.30805433e-12,4.04625 Z M0.443432413,2.0800877 L0.599057413,1.8105373 L1.27293343,2.1995998 L1.11730843,2.4691502 L0.443432413,2.0800877 Z M1.8105373,0.599057413 L2.0800877,0.443432413 L2.4691502,1.11730843 L2.1995998,1.27293343 L1.8105373,0.599057413 Z" id="Rectangle-5" fill="#204DF8" opacity="0.5"></path>
                <g id="Rectangle-9" transform="translate(3.3852, 3.0761) rotate(-113) translate(-3.3852, -3.0761)">
                    <use fill="black" fill-opacity="1" filter="url(#filter-18)" xlink:href="#path-17"></use>
                    <use fill="#7F7F7F" fill-rule="evenodd" xlink:href="#path-17"></use>
                </g>
                <g id="Rectangle-9">
                    <use fill="black" fill-opacity="1" filter="url(#filter-20)" xlink:href="#path-19"></use>
                    <use fill="#FD6C6C" fill-rule="evenodd" xlink:href="#path-19"></use>
                </g>
                <circle id="Oval-4" fill="#4D4D4D" cx="3.7341056" cy="3.82354526" r="1"></circle>
            </g>
        </g>
        <g id="Guide/128"></g>
    </g>
</svg>